<?xml version="1.0" standalone="yes"?>
<svg width="366" height="271">
<path style="fill:#000000; stroke:none;" d="M0 0L0 271L366 271L366 0L0 0z"/>
<path style="fill:#8f9fbb; stroke:none;" d="M156 19L156 20L169 20L156 19z"/>
<path style="fill:#fafbfc; stroke:none;" d="M169.667 19.3333L170.333 19.6667L169.667 19.3333z"/>
<path style="fill:#d59b00; stroke:none;" d="M210 19C203.982 66.369 192.404 114.243 182.715 161C178.186 182.85 170.185 206.62 170 229C175.462 229 189.189 231.478 193.262 227.397C199.235 221.41 198.321 203.111 200.556 195C205.631 176.575 207.822 157.571 212.17 139C215.812 123.444 220.74 106.939 222 91L223 91L230 153L243.725 151.972L253.745 135L276 91L277 91L263 168C249.642 168 247.581 168.691 245 182L285 182L304.818 78L316 19C309.95 19 297.569 16.6289 292.418 20.0278C286.847 23.7039 284.146 34.4167 280.796 40C269.624 58.616 254.538 81.3393 248 102L237.36 41L233.258 20.0278L210 19z"/>
<path style="fill:#ccd3e0; stroke:none;" d="M151.667 20.3333L152.333 20.6667L151.667 20.3333z"/>
<path style="fill:#1e3f77; stroke:none;" d="M153 20L153 21L172 21L153 20z"/>
<path style="fill:#a9b5cb; stroke:none;" d="M172 20L172 21L175 21L172 20z"/>
<path style="fill:#a0aec6; stroke:none;" d="M148.667 21.3333L149.333 21.6667L148.667 21.3333z"/>
<path style="fill:#576f9a; stroke:none;" d="M150 21L150 22L153 22L150 21z"/>
<path style="fill:#002565; stroke:none;" d="M32 136L10 137C8.82912 151.837 5.48333 165.889 19.0039 176.61C28.9628 184.506 44.1393 182 56 182L122 182C138.803 182 153.637 182.741 165.815 168.996C178.387 154.806 191.574 113.419 174.896 98.4676C165.356 89.915 138.762 88.1598 137.134 72.9606C135.528 57.9645 159.505 26.5437 170.347 50.0147C172.88 55.4982 171.118 61.2722 171 67C176.181 67 188.196 69.2404 192.4 65.9722C194.863 64.0578 194.79 58.8192 195.246 56C197.201 43.9198 193.43 30.6537 182 24.4174C142.589 2.91431 100.253 56.6562 118.046 92.9992C125.539 108.303 152.448 105.787 157.812 121.004C161.285 130.854 155.191 151.727 146.71 157.656C140.218 162.194 128.55 160 121 160L64 160C56.8453 160 45.5053 162.128 39.0046 158.821C30.6328 154.562 30.526 143.939 32 136z"/>
<path style="fill:#496391; stroke:none;" d="M173 21L173 22L176 22L173 21z"/>
<path style="fill:#d0d7e3; stroke:none;" d="M176.667 21.3333L177.333 21.6667L176.667 21.3333z"/>
<path style="fill:#b7c1d4; stroke:none;" d="M143 23L143 24L148 23L143 23z"/>
<path style="fill:#8c9dba; stroke:none;" d="M177.667 22.3333L178.333 22.6667L177.667 22.3333z"/>
<path style="fill:#d8dee7; stroke:none;" d="M179 22L179 23L184 25L184 24L179 22z"/>
<path style="fill:#c2cbda; stroke:none;" d="M141.667 24.3333L142.333 24.6667L141.667 24.3333z"/>
<path style="fill:#cdd4e1; stroke:none;" d="M140 25L141 26L140 25z"/>
<path style="fill:#dde2ea; stroke:none;" d="M184 25L185 26L184 25z"/>
<path style="fill:#ebeef3; stroke:none;" d="M138 26L139 27L138 26z"/>
<path style="fill:#b2bdd0; stroke:none;" d="M185 26L186 27L185 26z"/>
<path style="fill:#8899b7; stroke:none;" d="M135 30L139 28L135 30z"/>
<path style="fill:#9dabc4; stroke:none;" d="M186 27L187 28L186 27z"/>
<path style="fill:#f2f4f7; stroke:none;" d="M187 28L191 32L187 28z"/>
<path style="fill:#d8dee7; stroke:none;" d="M134 29L135 30L134 29z"/>
<path style="fill:#d9dfe8; stroke:none;" d="M132 30L132 32L134 30L132 30z"/>
<path style="fill:#c3ccdb; stroke:none;" d="M131 32L132 33L131 32z"/>
<path style="fill:#8a9bb8; stroke:none;" d="M191.333 32.6667L191.667 33.3333L191.333 32.6667z"/>
<path style="fill:#bcc6d7; stroke:none;" d="M130 33L131 34L130 33z"/>
<path style="fill:#c1cada; stroke:none;" d="M129 34L130 35L129 34z"/>
<path style="fill:#60779f; stroke:none;" d="M192.333 34.6667L192.667 35.3333L192.333 34.6667z"/>
<path style="fill:#d2d9e4; stroke:none;" d="M128 35L129 36L128 35z"/>
<path style="fill:#b1bcd0; stroke:none;" d="M193.333 35.6667L193.667 36.3333L193.333 35.6667z"/>
<path style="fill:#ebeef3; stroke:none;" d="M127 36L128 37L127 36z"/>
<path style="fill:#94a4be; stroke:none;" d="M125 38L123 43L127 38L125 38z"/>
<path style="fill:#8d9eba; stroke:none;" d="M194.333 38.6667L194.667 39.3333L194.333 38.6667z"/>
<path style="fill:#f0f2f6; stroke:none;" d="M195 39L195 42L196 42L195 39z"/>
<path style="fill:#28477d; stroke:none;" d="M153 42L153 43L165 44L153 42z"/>
<path style="fill:#798cae; stroke:none;" d="M195 42L195 45L196 45L195 42z"/>
<path style="fill:#c8d0de; stroke:none;" d="M196 42L196 57L197 57L196 42z"/>
<path style="fill:#acb8cd; stroke:none;" d="M153.667 43.3333L154.333 43.6667L153.667 43.3333z"/>
<path style="fill:#f1f3f7; stroke:none;" d="M155.667 43.3333L156.333 43.6667L155.667 43.3333z"/>
<path style="fill:#f3f5f8; stroke:none;" d="M160 43L160 44L166 45L166 44L160 43z"/>
<path style="fill:#5b739c; stroke:none;" d="M122.333 44.6667L122.667 45.3333L122.333 44.6667z"/>
<path style="fill:#f7f8fa; stroke:none;" d="M151 44L151 45L155 45L151 44z"/>
<path style="fill:#a6b3c9; stroke:none;" d="M121.333 45.6667L121.667 46.3333L121.333 45.6667z"/>
<path style="fill:#dce1ea; stroke:none;" d="M149.667 45.3333L150.333 45.6667L149.667 45.3333z"/>
<path style="fill:#93a3be; stroke:none;" d="M166 45L170 48L166 45z"/>
<path style="fill:#bdc7d7; stroke:none;" d="M148 46L149 47L148 46z"/>
<path style="fill:#d6dce6; stroke:none;" d="M120 47L118 54L119 54L120 47z"/>
<path style="fill:#dadfe9; stroke:none;" d="M147 47L148 48L147 47z"/>
<path style="fill:#edf0f4; stroke:none;" d="M146 48L147 49L146 48z"/>
<path style="fill:#f6f7fa; stroke:none;" d="M169 48L169 51L170 51L169 48z"/>
<path style="fill:#eff1f5; stroke:none;" d="M145 49L146 50L145 49z"/>
<path style="fill:#aebace; stroke:none;" d="M170 49L170 52L171 52L170 49z"/>
<path style="fill:#d2d9e4; stroke:none;" d="M144 50L145 51L144 50z"/>
<path style="fill:#e4e8ef; stroke:none;" d="M143.333 51.6667L143.667 52.3333L143.333 51.6667z"/>
<path style="fill:#a4b1c8; stroke:none;" d="M142 52L140 59L142 52z"/>
<path style="fill:#9aa9c2; stroke:none;" d="M171 53L171 61L172 61L171 53z"/>
<path style="fill:#bec7d8; stroke:none;" d="M117 54L117 57L118 57L117 54z"/>
<path style="fill:#7589ac; stroke:none;" d="M195 54L195 57L196 57L195 54z"/>
<path style="fill:#4d6794; stroke:none;" d="M117.333 57.6667L117.667 58.3333L117.333 57.6667z"/>
<path style="fill:#f0f2f6; stroke:none;" d="M195 57L194 65L195 65L195 57z"/>
<path style="fill:#a3b0c7; stroke:none;" d="M116.333 58.6667L116.667 59.3333L116.333 58.6667z"/>
<path style="fill:#f9fafb; stroke:none;" d="M140 59L139 69L140 69L140 59z"/>
<path style="fill:#5d759d; stroke:none;" d="M116 60L116 63L117 63L116 60z"/>
<path style="fill:#7c8fb0; stroke:none;" d="M139.333 60.6667L139.667 61.3333L139.333 60.6667z"/>
<path style="fill:#8798b7; stroke:none;" d="M194.333 60.6667L194.667 61.3333L194.333 60.6667z"/>
<path style="fill:#bcc6d7; stroke:none;" d="M115.333 62.6667L115.667 63.3333L115.333 62.6667z"/>
<path style="fill:#f6f7fa; stroke:none;" d="M170 62L169 68L170 68L170 62z"/>
<path style="fill:#7387aa; stroke:none;" d="M115.333 64.6667L115.667 65.3333L115.333 64.6667M138.333 65.6667L138.667 66.3333L138.333 65.6667z"/>
<path style="fill:#7085a9; stroke:none;" d="M170 65C171.198 70.5896 187.937 68 193 68L193 67L170 65z"/>
<path style="fill:#2d4b80; stroke:none;" d="M137 66L137 77L138 77L137 66z"/>
<path style="fill:#c2cbda; stroke:none;" d="M193.333 66.6667L193.667 67.3333L193.333 66.6667z"/>
<path style="fill:#b6c1d3; stroke:none;" d="M138 67L138 71L139 71L138 67z"/>
<path style="fill:#a0aec6; stroke:none;" d="M114 68L114 72L115 72L114 68z"/>
<path style="fill:#f3f5f8; stroke:none;" d="M113 70L113 84L114 84L113 70z"/>
<path style="fill:#6f84a8; stroke:none;" d="M114 72L114 82L115 82L114 72z"/>
<path style="fill:#bac4d5; stroke:none;" d="M138 75L138 77L140 77L138 75z"/>
<path style="fill:#d3d9e4; stroke:none;" d="M139 78L140 79L139 78z"/>
<path style="fill:#899ab8; stroke:none;" d="M139 79L144 83L139 79z"/>
<path style="fill:#b5c0d2; stroke:none;" d="M114.333 82.6667L114.667 83.3333L114.333 82.6667z"/>
<path style="fill:#b8c2d4; stroke:none;" d="M144.667 83.3333L145.333 83.6667L144.667 83.3333z"/>
<path style="fill:#f9fafb; stroke:none;" d="M114.333 84.6667L114.667 85.3333L114.333 84.6667z"/>
<path style="fill:#b2bdd0; stroke:none;" d="M146 84L146 85L150 86L150 85L146 84z"/>
<path style="fill:#dfe4ec; stroke:none;" d="M150 85L150 86L155 88L155 87L150 85z"/>
<path style="fill:#476290; stroke:none;" d="M115 86L116 91L117 91L115 86z"/>
<path style="fill:#afbbcf; stroke:none;" d="M156 88L157 89L156 88z"/>
<path style="fill:#ebeef3; stroke:none;" d="M115 89L116 90L115 89z"/>
<path style="fill:#4f6995; stroke:none;" d="M156 89L156 90L159 90L156 89z"/>
<path style="fill:#d1d8e3; stroke:none;" d="M159 89L160 90L159 89z"/>
<path style="fill:#000000; stroke:none;" d="M277 89L278 90L277 89z"/>
<path style="fill:#8395b4; stroke:none;" d="M159 90L159 91L162 91L159 90z"/>
<path style="fill:#b9c3d5; stroke:none;" d="M162 90L165 92L165 91L162 90z"/>
<path style="fill:#bec7d8; stroke:none;" d="M116 91L117 92L116 91z"/>
<path style="fill:#bdc7d7; stroke:none;" d="M117 92L120 97L117 92z"/>
<path style="fill:#e4e8ef; stroke:none;" d="M165 92L165 93L169 94L169 93L165 92z"/>
<path style="fill:#9fadc5; stroke:none;" d="M169 94L170 95L169 94z"/>
<path style="fill:#bdc7d7; stroke:none;" d="M171 95L172 96L171 95z"/>
<path style="fill:#d5dbe6; stroke:none;" d="M172 96L175 98L172 96z"/>
<path style="fill:#d1d8e3; stroke:none;" d="M120 97L121 98L120 97M121 98L122 99L121 98z"/>
<path style="fill:#e1e5ed; stroke:none;" d="M175 98L176 99L175 98M122 99L123 100L122 99z"/>
<path style="fill:#e8ebf1; stroke:none;" d="M176 99L177 100L176 99z"/>
<path style="fill:#acb8cd; stroke:none;" d="M123 100L126 102L123 100z"/>
<path style="fill:#e8ebf1; stroke:none;" d="M177 100L178 101L177 100z"/>
<path style="fill:#aab6cc; stroke:none;" d="M178.333 101.667L178.667 102.333L178.333 101.667z"/>
<path style="fill:#8395b4; stroke:none;" d="M126.667 102.333L127.333 102.667L126.667 102.333z"/>
<path style="fill:#5f769e; stroke:none;" d="M128.667 103.333L129.333 103.667L128.667 103.333z"/>
<path style="fill:#7f92b2; stroke:none;" d="M179.333 103.667L179.667 104.333L179.333 103.667z"/>
<path style="fill:#4f6995; stroke:none;" d="M130.667 104.333L131.333 104.667L130.667 104.333z"/>
<path style="fill:#ced5e1; stroke:none;" d="M180.333 104.667L180.667 105.333L180.333 104.667z"/>
<path style="fill:#fafbfc; stroke:none;" d="M132 105L135 107L135 106L132 105z"/>
<path style="fill:#cfd6e2; stroke:none;" d="M135 107L135 108L138 108L135 107z"/>
<path style="fill:#c9d1de; stroke:none;" d="M181.333 107.667L181.667 108.333L181.333 107.667z"/>
<path style="fill:#a3b0c7; stroke:none;" d="M138 108L138 109L142 110L142 109L138 108z"/>
<path style="fill:#6a80a5; stroke:none;" d="M143.667 110.333L144.333 110.667L143.667 110.333z"/>
<path style="fill:#91a1bd; stroke:none;" d="M145.667 111.333L146.333 111.667L145.667 111.333z"/>
<path style="fill:#f0f2f6; stroke:none;" d="M146 112L146 113L151 114L151 113L146 112z"/>
<path style="fill:#ccd3e0; stroke:none;" d="M182 113L182 123L183 123L182 113z"/>
<path style="fill:#97a6c0; stroke:none;" d="M151.667 114.333L152.333 114.667L151.667 114.333z"/>
<path style="fill:#6279a0; stroke:none;" d="M153.667 115.333L154.333 115.667L153.667 115.333z"/>
<path style="fill:#f0f2f6; stroke:none;" d="M154 116L155 117L154 116z"/>
<path style="fill:#7b8eaf; stroke:none;" d="M155 116L156 117L155 116z"/>
<path style="fill:#edf0f4; stroke:none;" d="M155 117L156 118L155 117z"/>
<path style="fill:#778bad; stroke:none;" d="M156 117L157 118L156 117z"/>
<path style="fill:#eceff4; stroke:none;" d="M156 118L158 121L156 118z"/>
<path style="fill:#5f769e; stroke:none;" d="M158 122L158 126L159 126L158 122z"/>
<path style="fill:#8d9eba; stroke:none;" d="M181 126L181 129L182 129L181 126z"/>
<path style="fill:#f3f5f8; stroke:none;" d="M157 128L156 136L157 136L157 128z"/>
<path style="fill:#e7eaf1; stroke:none;" d="M181.333 129.667L181.667 130.333L181.333 129.667z"/>
<path style="fill:#7387aa; stroke:none;" d="M157 131L157 134L158 134L157 131z"/>
<path style="fill:#798cae; stroke:none;" d="M180.333 132.667L180.667 133.333L180.333 132.667z"/>
<path style="fill:#f9fafb; stroke:none;" d="M17 134L17 135L20 135L17 134z"/>
<path style="fill:#e9ecf2; stroke:none;" d="M21 134L21 135L33 135L32 149L33 149L34 134L21 134z"/>
<path style="fill:#bcc6d7; stroke:none;" d="M180 134L180 137L181 137L180 134z"/>
<path style="fill:#eceff4; stroke:none;" d="M6 159L7 159C7.00455 152.135 6.27521 139.696 13 136C4.73977 133.296 6 154.116 6 159z"/>
<path style="fill:#b5c0d2; stroke:none;" d="M13 135L13 136L22 136L13 135z"/>
<path style="fill:#90a0bc; stroke:none;" d="M22 135L22 136L32 138C33.6595 133.598 24.7256 135 22 135z"/>
<path style="fill:#526b97; stroke:none;" d="M10 136L10 137L17 137L10 136z"/>
<path style="fill:#2a497e; stroke:none;" d="M17 136L17 137L26 137L17 136z"/>
<path style="fill:#92a2bd; stroke:none;" d="M156 136L156 139L157 139L156 136z"/>
<path style="fill:#486390; stroke:none;" d="M9 137L9 142L10 142L9 137z"/>
<path style="fill:#c0c9d9; stroke:none;" d="M155 137L155 142L156 142L155 137z"/>
<path style="fill:#7f92b2; stroke:none;" d="M179 137L179 140L180 140L179 137z"/>
<path style="fill:#6b80a6; stroke:none;" d="M31 138L31 148L32 148L31 138z"/>
<path style="fill:#5d759d; stroke:none;" d="M178.333 140.667L178.667 141.333L178.333 140.667z"/>
<path style="fill:#dfe4ec; stroke:none;" d="M179.333 140.667L179.667 141.333L179.333 140.667z"/>
<path style="fill:#546d98; stroke:none;" d="M8 142L8 150L9 150L8 142z"/>
<path style="fill:#d7dde7; stroke:none;" d="M154 142L154 145L155 145L154 142z"/>
<path style="fill:#59719b; stroke:none;" d="M155.333 142.667L155.667 143.333L155.333 142.667z"/>
<path style="fill:#aab6cc; stroke:none;" d="M178 142L178 145L179 145L178 142z"/>
<path style="fill:#a0aec6; stroke:none;" d="M154 145L153 149L154 149L154 145M177.333 145.667L177.667 146.333L177.333 145.667z"/>
<path style="fill:#f6f7fa; stroke:none;" d="M178.333 145.667L178.667 146.333L178.333 145.667z"/>
<path style="fill:#e2e6ed; stroke:none;" d="M177 147L177 150L178 150L177 147z"/>
<path style="fill:#90a0bc; stroke:none;" d="M176.333 148.667L176.667 149.333L176.333 148.667z"/>
<path style="fill:#788cad; stroke:none;" d="M7 149L8 161L9 161L7 149z"/>
<path style="fill:#a0aec6; stroke:none;" d="M32 149L32 152L33 152L32 149z"/>
<path style="fill:#f8f9fb; stroke:none;" d="M33 149L33 153L34 153L33 149z"/>
<path style="fill:#ccd3e0; stroke:none;" d="M152 150L153 151L152 150z"/>
<path style="fill:#f6f7fa; stroke:none;" d="M176.333 150.667L176.667 151.333L176.333 150.667z"/>
<path style="fill:#bfc8d8; stroke:none;" d="M151 152L152 153L151 152z"/>
<path style="fill:#e9ecf2; stroke:none;" d="M175.333 152.667L175.667 153.333L175.333 152.667z"/>
<path style="fill:#5b739c; stroke:none;" d="M33.3333 153.667L33.6667 154.333L33.3333 153.667z"/>
<path style="fill:#c9d1de; stroke:none;" d="M34 153C35.2698 157.377 37.5456 158.663 42 159L42 158L34 153z"/>
<path style="fill:#8294b4; stroke:none;" d="M149 156L152 153L149 156z"/>
<path style="fill:#6c81a6; stroke:none;" d="M174.333 153.667L174.667 154.333L174.333 153.667z"/>
<path style="fill:#eff1f5; stroke:none;" d="M148 155L149 156L148 155z"/>
<path style="fill:#6178a0; stroke:none;" d="M173 155L173 158L174 158L173 155z"/>
<path style="fill:#f7f8fa; stroke:none;" d="M174.333 155.667L174.667 156.333L174.333 155.667z"/>
<path style="fill:#eceff4; stroke:none;" d="M147 156L148 157L147 156z"/>
<path style="fill:#526b97; stroke:none;" d="M146 157L146 159L148 157L146 157z"/>
<path style="fill:#a5b2c9; stroke:none;" d="M42 159L42 160L110 160L146 159L114 159L42 159z"/>
<path style="fill:#c9d1de; stroke:none;" d="M172 158L170 164L171 164L174 158L172 158z"/>
<path style="fill:#f8f9fb; stroke:none;" d="M7 159L7 163L8 163L7 159z"/>
<path style="fill:#5a729b; stroke:none;" d="M39 159L39 160L42 160L39 159z"/>
<path style="fill:#b6c1d3; stroke:none;" d="M8 161L11 167L8 161z"/>
<path style="fill:#afbbcf; stroke:none;" d="M169 164L170 165L169 164z"/>
<path style="fill:#788cad; stroke:none;" d="M168 165L169 166L168 165z"/>
<path style="fill:#e8ebf1; stroke:none;" d="M168 166L169 167L168 166z"/>
<path style="fill:#f4f6f8; stroke:none;" d="M10.3333 167.667L10.6667 168.333L10.3333 167.667z"/>
<path style="fill:#a3b0c7; stroke:none;" d="M11 167C12.0681 172.294 15.1481 175.731 20 178L11 167z"/>
<path style="fill:#bfc8d8; stroke:none;" d="M167 167L168 168L167 167z"/>
<path style="fill:#f3f5f8; stroke:none;" d="M166 168L164 171L166 168z"/>
<path style="fill:#899ab8; stroke:none;" d="M163 171L164 172L163 171z"/>
<path style="fill:#92a2bd; stroke:none;" d="M162 172L163 173L162 172z"/>
<path style="fill:#a7b4ca; stroke:none;" d="M161 173L162 174L161 173z"/>
<path style="fill:#c8d0de; stroke:none;" d="M160 174L161 175L160 174z"/>
<path style="fill:#eceff4; stroke:none;" d="M157 177L160 175L157 177z"/>
<path style="fill:#d1d8e3; stroke:none;" d="M155.667 177.333L156.333 177.667L155.667 177.333z"/>
<path style="fill:#d0d7e3; stroke:none;" d="M20 178L20 179L24 180L24 179L20 178z"/>
<path style="fill:#c3ccdb; stroke:none;" d="M153.667 178.333L154.333 178.667L153.667 178.333z"/>
<path style="fill:#c7cfdd; stroke:none;" d="M151.667 179.333L152.333 179.667L151.667 179.333z"/>
<path style="fill:#8a9bb8; stroke:none;" d="M24.6667 180.333L25.3333 180.667L24.6667 180.333z"/>
<path style="fill:#e2e6ed; stroke:none;" d="M147 181L147 182L151 181L147 181z"/>
<path style="fill:#e7eaf1; stroke:none;" d="M25 181L25 182L30 183L30 182L25 181z"/>
<path style="fill:#6178a0; stroke:none;" d="M28 181L28 182L31 182L28 181z"/>
<path style="fill:#8798b7; stroke:none;" d="M145.667 181.333L146.333 181.667L145.667 181.333z"/>
<path style="fill:#b0bbcf; stroke:none;" d="M30 182L30 183L145 183L110 182L30 182z"/>
<path style="fill:#edf0f4; stroke:none;" d="M145.667 182.333L146.333 182.667L145.667 182.333z"/>
<path style="fill:#e8ebf1; stroke:none;" d="M59 185L59 186L69 187L59 185z"/>
<path style="fill:#d8dee7; stroke:none;" d="M114 186L114 187L125 187L114 186z"/>
<path style="fill:#002565; stroke:none;" d="M219 185.637C203.209 190.125 202.29 206.553 199.6 220C198.445 225.777 196.108 232.07 197.39 238C199.798 249.131 213.348 251.94 223 248.146C227.323 246.446 239.554 236.397 235.867 230.603C230.235 221.753 216.511 239.398 213.198 232.833C210.46 227.41 215.798 200.416 222.961 200.086C227.765 199.866 233.195 213.849 241.142 205.397C252.512 193.303 228.315 182.99 219 185.637M263 185.529C247.976 188.997 245.733 204.203 243.586 217C242.59 222.94 239.606 229.993 240.252 236C241.594 248.48 254.668 251.03 265 248.697C270.78 247.391 275.577 242.129 278.04 236.996C285.977 220.455 293.911 178.395 263 185.529M284 249C287.723 249 295.315 250.445 298.062 247.397C300.578 244.604 300.517 238.549 301.197 235C303.071 225.224 303.985 214.414 307.344 205.019C308.728 201.146 315.2 197.017 316.829 203.113C317.982 207.431 314.954 212.738 314.275 217L312.414 229C311.329 235.463 309.656 241.667 308 248C311.6 249.064 320.155 250.713 323.012 247.397C325.443 244.574 325.317 238.529 326 235C327.884 225.267 328.659 214.292 332.263 205.019C333.679 201.375 340.248 196.867 341.639 203.113C342.565 207.27 339.734 212.819 339.131 217C338.505 221.344 337.803 225.67 337.08 230C336.009 236.417 333.834 242.549 333 249C336.801 249 344.251 250.42 347.4 247.972C350.477 245.581 350.323 237.579 350.92 234C352.836 222.513 356 211.716 356 200C356 196.358 356.825 191.402 354.397 188.344C347.501 179.661 338.275 189.693 331 187.995C322.812 186.085 319.263 183.847 311 188C308.14 184.034 298.071 183.016 295.564 188.148C292.938 193.522 293.262 201.168 292.041 207C289.227 220.437 284.321 235.267 284 249z"/>
<path style="fill:#a0aec6; stroke:none;" d="M54 191L59 186L54 191z"/>
<path style="fill:#6279a0; stroke:none;" d="M59.6667 186.333L60.3333 186.667L59.6667 186.333z"/>
<path style="fill:#002565; stroke:none;" d="M61.0008 186.612C49.617 189.374 53.3108 207.691 64.9992 205.427C77.3439 203.035 73.5828 183.559 61.0008 186.612z"/>
<path style="fill:#6f84a8; stroke:none;" d="M65.6667 186.333L66.3333 186.667L65.6667 186.333z"/>
<path style="fill:#002565; stroke:none;" d="M116.005 186.757C104.518 190.937 111.105 209.547 122.981 204.848C134.059 200.465 127.54 182.559 116.005 186.757z"/>
<path style="fill:#6e83a7; stroke:none;" d="M121.667 186.333L122.333 186.667L121.667 186.333z"/>
<path style="fill:#c3ccdb; stroke:none;" d="M69 187L70 188L69 187z"/>
<path style="fill:#92a2bd; stroke:none;" d="M110 191L114 187L110 191z"/>
<path style="fill:#c2cbda; stroke:none;" d="M125 187L126 188L125 187z"/>
<path style="fill:#b3bed1; stroke:none;" d="M70 188L71 189L70 188z"/>
<path style="fill:#b2bdd0; stroke:none;" d="M126 188L127 189L126 188z"/>
<path style="fill:#f9fafb; stroke:none;" d="M71 189L73 191L73 189L71 189M127 189L129 191L129 189L127 189z"/>
<path style="fill:#b3bed1; stroke:none;" d="M53.3333 191.667L53.6667 192.333L53.3333 191.667z"/>
<path style="fill:#506995; stroke:none;" d="M72.3333 191.667L72.6667 192.333L72.3333 191.667z"/>
<path style="fill:#9fadc5; stroke:none;" d="M73 191L73 201L74 201L73 191z"/>
<path style="fill:#b4bfd2; stroke:none;" d="M109.333 191.667L109.667 192.333L109.333 191.667z"/>
<path style="fill:#4f6995; stroke:none;" d="M128.333 191.667L128.667 192.333L128.333 191.667z"/>
<path style="fill:#9baac3; stroke:none;" d="M129 191L129 201L130 201L129 191z"/>
<path style="fill:#45608f; stroke:none;" d="M53 193L53 198L54 198L53 193z"/>
<path style="fill:#476290; stroke:none;" d="M109 193L109 198L110 198L109 193z"/>
<path style="fill:#b0bbcf; stroke:none;" d="M53 198L59 206L53 198z"/>
<path style="fill:#506995; stroke:none;" d="M72 198L72 201L73 201L72 198z"/>
<path style="fill:#b0bbcf; stroke:none;" d="M109 198L115 206L109 198z"/>
<path style="fill:#4f6995; stroke:none;" d="M128 198L128 201L129 201L128 198z"/>
<path style="fill:#000000; stroke:none;" d="M265.999 199.801C257.67 200.793 257.267 220.855 256.429 227C256.046 229.805 255.679 235.42 260.015 235.168C268.081 234.699 269.284 212.855 270.065 207.001C270.48 203.889 270.476 199.268 265.999 199.801z"/>
<path style="fill:#f9fafb; stroke:none;" d="M72 201L71 203L73 203L72 201M128 201L127 203L129 203L128 201z"/>
<path style="fill:#b1bcd0; stroke:none;" d="M70 203L71 204L70 203z"/>
<path style="fill:#b0bbcf; stroke:none;" d="M126 203L127 204L126 203z"/>
<path style="fill:#d7dde7; stroke:none;" d="M59 206L59 207L70 204L59 206M115 206L115 207L126 204L115 206z"/>
<path style="fill:#60779f; stroke:none;" d="M59.6667 205.333L60.3333 205.667L59.6667 205.333z"/>
<path style="fill:#6d82a7; stroke:none;" d="M65.6667 205.333L66.3333 205.667L65.6667 205.333z"/>
<path style="fill:#6178a0; stroke:none;" d="M115.667 205.333L116.333 205.667L115.667 205.333z"/>
<path style="fill:#6c81a6; stroke:none;" d="M121.667 205.333L122.333 205.667L121.667 205.333z"/>
<path style="fill:#002565; stroke:none;" d="M175 231L173 249L191 249L194 231L175 231z"/>
</svg>
